<mxfile host="app.diagrams.net" modified="2023-12-19T18:07:45.091Z" agent="Mozilla/5.0 (Windows NT 10.0; Win64; x64; rv:120.0) Gecko/20100101 Firefox/120.0" etag="520jml1g1nNGyY0TwuxR" version="22.1.7" type="device">
  <diagram name="Page-1" id="kjD4gZWh0GLrHGbuji8C">
    <mxGraphModel dx="1108" dy="759" grid="1" gridSize="10" guides="1" tooltips="1" connect="1" arrows="1" fold="1" page="1" pageScale="1" pageWidth="850" pageHeight="1100" math="0" shadow="0">
      <root>
        <mxCell id="0" />
        <mxCell id="1" parent="0" />
        <mxCell id="muk6Y00Rmkquv57omvr4-17" style="edgeStyle=orthogonalEdgeStyle;rounded=0;orthogonalLoop=1;jettySize=auto;html=1;" parent="1" source="-o4CJr4k2LS8cgy7fZOQ-1" target="muk6Y00Rmkquv57omvr4-15" edge="1">
          <mxGeometry relative="1" as="geometry" />
        </mxCell>
        <mxCell id="-o4CJr4k2LS8cgy7fZOQ-1" value="" style="rounded=1;whiteSpace=wrap;html=1;" parent="1" vertex="1">
          <mxGeometry x="380" y="770" width="150" height="240" as="geometry" />
        </mxCell>
        <mxCell id="muk6Y00Rmkquv57omvr4-35" style="edgeStyle=orthogonalEdgeStyle;rounded=0;orthogonalLoop=1;jettySize=auto;html=1;" parent="1" source="-o4CJr4k2LS8cgy7fZOQ-7" edge="1">
          <mxGeometry relative="1" as="geometry">
            <mxPoint x="240" y="20" as="targetPoint" />
          </mxGeometry>
        </mxCell>
        <mxCell id="-o4CJr4k2LS8cgy7fZOQ-7" value="&lt;div&gt;ingress-controller&lt;/div&gt;&lt;div&gt;&lt;br&gt;&lt;/div&gt;:&amp;nbsp;&amp;nbsp; etop-prod-ingressc" style="ellipse;whiteSpace=wrap;html=1;fontStyle=1" parent="1" vertex="1">
          <mxGeometry x="150" y="60" width="180" height="140" as="geometry" />
        </mxCell>
        <mxCell id="muk6Y00Rmkquv57omvr4-34" style="edgeStyle=orthogonalEdgeStyle;rounded=0;orthogonalLoop=1;jettySize=auto;html=1;" parent="1" source="-o4CJr4k2LS8cgy7fZOQ-8" target="-o4CJr4k2LS8cgy7fZOQ-7" edge="1">
          <mxGeometry relative="1" as="geometry" />
        </mxCell>
        <mxCell id="-o4CJr4k2LS8cgy7fZOQ-8" value="&lt;div&gt;namespace:&amp;nbsp;&amp;nbsp;&amp;nbsp;&amp;nbsp;&amp;nbsp;&amp;nbsp;&amp;nbsp;&amp;nbsp;&amp;nbsp;&amp;nbsp;&amp;nbsp;&amp;nbsp;&amp;nbsp;&amp;nbsp;&amp;nbsp;&amp;nbsp;&amp;nbsp;&amp;nbsp;&amp;nbsp;&amp;nbsp;&amp;nbsp;&amp;nbsp;&amp;nbsp;&amp;nbsp;&amp;nbsp;&amp;nbsp;&amp;nbsp; etop-prod&lt;br&gt;&lt;/div&gt;&lt;div&gt;&lt;br&gt;&lt;/div&gt;&lt;div&gt;&lt;br&gt;&lt;/div&gt;" style="rhombus;whiteSpace=wrap;html=1;fontStyle=1" parent="1" vertex="1">
          <mxGeometry x="155" y="270" width="170" height="140" as="geometry" />
        </mxCell>
        <mxCell id="-o4CJr4k2LS8cgy7fZOQ-10" value="Backend" style="rounded=1;whiteSpace=wrap;html=1;" parent="1" vertex="1">
          <mxGeometry x="635" y="935" width="120" height="30" as="geometry" />
        </mxCell>
        <mxCell id="-o4CJr4k2LS8cgy7fZOQ-11" value="Frontend" style="rounded=1;whiteSpace=wrap;html=1;" parent="1" vertex="1">
          <mxGeometry x="635" y="875" width="120" height="30" as="geometry" />
        </mxCell>
        <mxCell id="muk6Y00Rmkquv57omvr4-48" style="edgeStyle=orthogonalEdgeStyle;rounded=0;orthogonalLoop=1;jettySize=auto;html=1;" parent="1" source="-o4CJr4k2LS8cgy7fZOQ-14" target="muk6Y00Rmkquv57omvr4-47" edge="1">
          <mxGeometry relative="1" as="geometry" />
        </mxCell>
        <mxCell id="-o4CJr4k2LS8cgy7fZOQ-14" value="&lt;div style=&quot;font-size: 14px;&quot;&gt;namespace:&amp;nbsp;&amp;nbsp; talrise-dev&lt;/div&gt;" style="rhombus;whiteSpace=wrap;html=1;fontStyle=1;fontSize=14;" parent="1" vertex="1">
          <mxGeometry x="630" y="630" width="130" height="110" as="geometry" />
        </mxCell>
        <mxCell id="-o4CJr4k2LS8cgy7fZOQ-22" value="&lt;div&gt;&lt;font style=&quot;font-size: 24px;&quot;&gt;aks-prod Cluster&amp;nbsp; &lt;br&gt;&lt;/font&gt;&lt;/div&gt;&lt;div&gt;&lt;font size=&quot;3&quot;&gt;(yeni)&lt;/font&gt;&lt;/div&gt;&lt;div&gt;&lt;font size=&quot;3&quot;&gt;&lt;br&gt;&lt;/font&gt;&lt;/div&gt;" style="text;html=1;strokeColor=none;fillColor=none;align=center;verticalAlign=middle;whiteSpace=wrap;rounded=0;" parent="1" vertex="1">
          <mxGeometry y="30" width="150" height="130" as="geometry" />
        </mxCell>
        <mxCell id="muk6Y00Rmkquv57omvr4-16" style="edgeStyle=orthogonalEdgeStyle;rounded=0;orthogonalLoop=1;jettySize=auto;html=1;" parent="1" source="muk6Y00Rmkquv57omvr4-1" target="muk6Y00Rmkquv57omvr4-11" edge="1">
          <mxGeometry relative="1" as="geometry" />
        </mxCell>
        <mxCell id="muk6Y00Rmkquv57omvr4-1" value="PostgreSQL&amp;nbsp;&amp;nbsp;&amp;nbsp; Flexible" style="shape=tape;whiteSpace=wrap;html=1;fontStyle=1;size=0.21052631578947367;" parent="1" vertex="1">
          <mxGeometry x="370" y="1140" width="250" height="230" as="geometry" />
        </mxCell>
        <mxCell id="muk6Y00Rmkquv57omvr4-11" value="" style="rounded=1;whiteSpace=wrap;html=1;" parent="1" vertex="1">
          <mxGeometry x="625" y="780" width="150" height="240" as="geometry" />
        </mxCell>
        <mxCell id="muk6Y00Rmkquv57omvr4-12" value="Backend" style="rounded=1;whiteSpace=wrap;html=1;fontStyle=1" parent="1" vertex="1">
          <mxGeometry x="645" y="945" width="120" height="30" as="geometry" />
        </mxCell>
        <mxCell id="muk6Y00Rmkquv57omvr4-13" value="Frontend" style="rounded=1;whiteSpace=wrap;html=1;fontStyle=1" parent="1" vertex="1">
          <mxGeometry x="645" y="885" width="120" height="30" as="geometry" />
        </mxCell>
        <mxCell id="muk6Y00Rmkquv57omvr4-51" value="" style="edgeStyle=orthogonalEdgeStyle;rounded=0;orthogonalLoop=1;jettySize=auto;html=1;" parent="1" source="muk6Y00Rmkquv57omvr4-14" target="-o4CJr4k2LS8cgy7fZOQ-14" edge="1">
          <mxGeometry relative="1" as="geometry" />
        </mxCell>
        <mxCell id="muk6Y00Rmkquv57omvr4-14" value="app.talrise.com" style="text;html=1;strokeColor=none;fillColor=none;align=center;verticalAlign=middle;whiteSpace=wrap;rounded=0;fontStyle=1;fontSize=15;" parent="1" vertex="1">
          <mxGeometry x="670" y="780" width="60" height="30" as="geometry" />
        </mxCell>
        <mxCell id="muk6Y00Rmkquv57omvr4-15" value="namespace:&amp;nbsp;&amp;nbsp;&amp;nbsp;&amp;nbsp;&amp;nbsp;&amp;nbsp;&amp;nbsp;&amp;nbsp;&amp;nbsp;&amp;nbsp;&amp;nbsp; etop-dev" style="rhombus;whiteSpace=wrap;html=1;fontSize=14;fontStyle=1" parent="1" vertex="1">
          <mxGeometry x="390" y="630" width="130" height="110" as="geometry" />
        </mxCell>
        <mxCell id="muk6Y00Rmkquv57omvr4-18" value="Backend" style="rounded=1;whiteSpace=wrap;html=1;fontStyle=1" parent="1" vertex="1">
          <mxGeometry x="390" y="945" width="120" height="30" as="geometry" />
        </mxCell>
        <mxCell id="muk6Y00Rmkquv57omvr4-19" value="Frontend" style="rounded=1;whiteSpace=wrap;html=1;fontStyle=1" parent="1" vertex="1">
          <mxGeometry x="390" y="885" width="120" height="30" as="geometry" />
        </mxCell>
        <mxCell id="muk6Y00Rmkquv57omvr4-20" value="dev.examinion.com" style="text;html=1;strokeColor=none;fillColor=none;align=center;verticalAlign=middle;whiteSpace=wrap;rounded=0;fontStyle=1;fontSize=15;" parent="1" vertex="1">
          <mxGeometry x="415" y="780" width="60" height="30" as="geometry" />
        </mxCell>
        <mxCell id="muk6Y00Rmkquv57omvr4-33" style="edgeStyle=orthogonalEdgeStyle;rounded=0;orthogonalLoop=1;jettySize=auto;html=1;" parent="1" source="muk6Y00Rmkquv57omvr4-21" target="-o4CJr4k2LS8cgy7fZOQ-8" edge="1">
          <mxGeometry relative="1" as="geometry" />
        </mxCell>
        <mxCell id="muk6Y00Rmkquv57omvr4-21" value="ingress" style="shape=cube;whiteSpace=wrap;html=1;boundedLbl=1;backgroundOutline=1;darkOpacity=0.05;darkOpacity2=0.1;fontStyle=1" parent="1" vertex="1">
          <mxGeometry x="180" y="490" width="120" height="80" as="geometry" />
        </mxCell>
        <mxCell id="muk6Y00Rmkquv57omvr4-31" style="edgeStyle=orthogonalEdgeStyle;rounded=0;orthogonalLoop=1;jettySize=auto;html=1;" parent="1" source="muk6Y00Rmkquv57omvr4-24" edge="1">
          <mxGeometry relative="1" as="geometry">
            <mxPoint x="240" y="730" as="targetPoint" />
          </mxGeometry>
        </mxCell>
        <mxCell id="muk6Y00Rmkquv57omvr4-24" value="" style="rounded=1;whiteSpace=wrap;html=1;fontStyle=1;fontSize=16;" parent="1" vertex="1">
          <mxGeometry x="150" y="760" width="150" height="240" as="geometry" />
        </mxCell>
        <mxCell id="muk6Y00Rmkquv57omvr4-32" style="edgeStyle=orthogonalEdgeStyle;rounded=0;orthogonalLoop=1;jettySize=auto;html=1;" parent="1" source="muk6Y00Rmkquv57omvr4-25" target="muk6Y00Rmkquv57omvr4-21" edge="1">
          <mxGeometry relative="1" as="geometry" />
        </mxCell>
        <mxCell id="muk6Y00Rmkquv57omvr4-25" value="namespace:&amp;nbsp;&amp;nbsp;&amp;nbsp;&amp;nbsp;&amp;nbsp;&amp;nbsp;&amp;nbsp;&amp;nbsp;&amp;nbsp;&amp;nbsp;&amp;nbsp; etop-prod" style="rhombus;whiteSpace=wrap;html=1;fontStyle=1;fontSize=14;" parent="1" vertex="1">
          <mxGeometry x="160" y="620" width="160" height="110" as="geometry" />
        </mxCell>
        <mxCell id="muk6Y00Rmkquv57omvr4-26" value="Backend" style="rounded=1;whiteSpace=wrap;html=1;fontStyle=1" parent="1" vertex="1">
          <mxGeometry x="160" y="935" width="120" height="30" as="geometry" />
        </mxCell>
        <mxCell id="muk6Y00Rmkquv57omvr4-27" value="Frontend" style="rounded=1;whiteSpace=wrap;html=1;fontStyle=1" parent="1" vertex="1">
          <mxGeometry x="160" y="875" width="120" height="30" as="geometry" />
        </mxCell>
        <mxCell id="muk6Y00Rmkquv57omvr4-28" value="edutest.examinion.com" style="text;html=1;strokeColor=none;fillColor=none;align=center;verticalAlign=middle;whiteSpace=wrap;rounded=0;fontStyle=1" parent="1" vertex="1">
          <mxGeometry x="185" y="770" width="60" height="30" as="geometry" />
        </mxCell>
        <mxCell id="muk6Y00Rmkquv57omvr4-29" style="edgeStyle=orthogonalEdgeStyle;rounded=0;orthogonalLoop=1;jettySize=auto;html=1;entryX=0.447;entryY=1.013;entryDx=0;entryDy=0;entryPerimeter=0;" parent="1" source="ORMxDvPU9FAxTXZJZU_r-5" target="muk6Y00Rmkquv57omvr4-24" edge="1">
          <mxGeometry relative="1" as="geometry" />
        </mxCell>
        <mxCell id="muk6Y00Rmkquv57omvr4-36" style="edgeStyle=orthogonalEdgeStyle;rounded=0;orthogonalLoop=1;jettySize=auto;html=1;" parent="1" source="muk6Y00Rmkquv57omvr4-37" edge="1">
          <mxGeometry relative="1" as="geometry">
            <mxPoint x="455" y="30" as="targetPoint" />
          </mxGeometry>
        </mxCell>
        <mxCell id="muk6Y00Rmkquv57omvr4-37" value="&lt;div&gt;ingress-controller&lt;/div&gt;&lt;div&gt;&amp;nbsp;&amp;nbsp;&amp;nbsp; :etop-dev-ingressc&lt;/div&gt;" style="ellipse;whiteSpace=wrap;html=1;fontStyle=1" parent="1" vertex="1">
          <mxGeometry x="365" y="70" width="180" height="140" as="geometry" />
        </mxCell>
        <mxCell id="muk6Y00Rmkquv57omvr4-38" style="edgeStyle=orthogonalEdgeStyle;rounded=0;orthogonalLoop=1;jettySize=auto;html=1;" parent="1" source="muk6Y00Rmkquv57omvr4-39" target="muk6Y00Rmkquv57omvr4-37" edge="1">
          <mxGeometry relative="1" as="geometry" />
        </mxCell>
        <mxCell id="muk6Y00Rmkquv57omvr4-39" value="&lt;div&gt;namespace:&amp;nbsp;&amp;nbsp; &lt;br&gt;&lt;/div&gt;&lt;div&gt;&lt;br&gt;&lt;/div&gt;&lt;div&gt;&lt;br&gt;&lt;/div&gt;&lt;div&gt;etop-dev&lt;br&gt;&lt;/div&gt;&lt;div&gt;&lt;br&gt;&lt;/div&gt;&lt;div&gt;&lt;br&gt;&lt;/div&gt;" style="rhombus;whiteSpace=wrap;html=1;fontStyle=1" parent="1" vertex="1">
          <mxGeometry x="370" y="280" width="170" height="140" as="geometry" />
        </mxCell>
        <mxCell id="muk6Y00Rmkquv57omvr4-40" style="edgeStyle=orthogonalEdgeStyle;rounded=0;orthogonalLoop=1;jettySize=auto;html=1;" parent="1" source="muk6Y00Rmkquv57omvr4-41" target="muk6Y00Rmkquv57omvr4-39" edge="1">
          <mxGeometry relative="1" as="geometry" />
        </mxCell>
        <mxCell id="muk6Y00Rmkquv57omvr4-41" value="ingress" style="shape=cube;whiteSpace=wrap;html=1;boundedLbl=1;backgroundOutline=1;darkOpacity=0.05;darkOpacity2=0.1;fontStyle=1" parent="1" vertex="1">
          <mxGeometry x="395" y="490" width="120" height="80" as="geometry" />
        </mxCell>
        <mxCell id="muk6Y00Rmkquv57omvr4-42" style="edgeStyle=orthogonalEdgeStyle;rounded=0;orthogonalLoop=1;jettySize=auto;html=1;" parent="1" source="muk6Y00Rmkquv57omvr4-43" edge="1">
          <mxGeometry relative="1" as="geometry">
            <mxPoint x="695" y="50" as="targetPoint" />
          </mxGeometry>
        </mxCell>
        <mxCell id="muk6Y00Rmkquv57omvr4-43" value="&lt;div&gt;ingress-controller&lt;/div&gt;&lt;div&gt;&amp;nbsp;&amp;nbsp; : talrise-dev-ingressc&lt;br&gt;&lt;/div&gt;" style="ellipse;whiteSpace=wrap;html=1;fontStyle=1" parent="1" vertex="1">
          <mxGeometry x="605" y="60" width="180" height="140" as="geometry" />
        </mxCell>
        <mxCell id="muk6Y00Rmkquv57omvr4-44" style="edgeStyle=orthogonalEdgeStyle;rounded=0;orthogonalLoop=1;jettySize=auto;html=1;" parent="1" source="muk6Y00Rmkquv57omvr4-45" target="muk6Y00Rmkquv57omvr4-43" edge="1">
          <mxGeometry relative="1" as="geometry" />
        </mxCell>
        <mxCell id="muk6Y00Rmkquv57omvr4-45" value="&lt;div&gt;namespace:&amp;nbsp;&amp;nbsp;&amp;nbsp;&amp;nbsp;&amp;nbsp;&amp;nbsp;&amp;nbsp;&amp;nbsp;&amp;nbsp;&amp;nbsp;&amp;nbsp;&amp;nbsp;&amp;nbsp;&amp;nbsp;&amp;nbsp;&amp;nbsp;&amp;nbsp;&amp;nbsp;&amp;nbsp;&amp;nbsp; talrise-dev&lt;br&gt;&lt;/div&gt;&lt;div&gt;&lt;br&gt;&lt;/div&gt;&lt;div&gt;&lt;br&gt;&lt;/div&gt;" style="rhombus;whiteSpace=wrap;html=1;fontStyle=1" parent="1" vertex="1">
          <mxGeometry x="610" y="290" width="170" height="140" as="geometry" />
        </mxCell>
        <mxCell id="muk6Y00Rmkquv57omvr4-46" style="edgeStyle=orthogonalEdgeStyle;rounded=0;orthogonalLoop=1;jettySize=auto;html=1;" parent="1" source="muk6Y00Rmkquv57omvr4-47" target="muk6Y00Rmkquv57omvr4-45" edge="1">
          <mxGeometry relative="1" as="geometry" />
        </mxCell>
        <mxCell id="muk6Y00Rmkquv57omvr4-47" value="ingress" style="shape=cube;whiteSpace=wrap;html=1;boundedLbl=1;backgroundOutline=1;darkOpacity=0.05;darkOpacity2=0.1;fontStyle=1" parent="1" vertex="1">
          <mxGeometry x="635" y="490" width="120" height="80" as="geometry" />
        </mxCell>
        <mxCell id="muk6Y00Rmkquv57omvr4-49" style="edgeStyle=orthogonalEdgeStyle;rounded=0;orthogonalLoop=1;jettySize=auto;html=1;entryX=0.5;entryY=1;entryDx=0;entryDy=0;entryPerimeter=0;" parent="1" source="muk6Y00Rmkquv57omvr4-15" target="muk6Y00Rmkquv57omvr4-41" edge="1">
          <mxGeometry relative="1" as="geometry" />
        </mxCell>
        <mxCell id="muk6Y00Rmkquv57omvr4-52" value="cert-manager" style="shape=cube;whiteSpace=wrap;html=1;boundedLbl=1;backgroundOutline=1;darkOpacity=0.05;darkOpacity2=0.1;fontStyle=1;fontSize=15;" parent="1" vertex="1">
          <mxGeometry x="10" y="400" width="120" height="100" as="geometry" />
        </mxCell>
        <mxCell id="muk6Y00Rmkquv57omvr4-54" style="edgeStyle=orthogonalEdgeStyle;rounded=0;orthogonalLoop=1;jettySize=auto;html=1;entryX=0.125;entryY=0;entryDx=0;entryDy=0;entryPerimeter=0;" parent="1" source="muk6Y00Rmkquv57omvr4-52" target="muk6Y00Rmkquv57omvr4-41" edge="1">
          <mxGeometry relative="1" as="geometry">
            <Array as="points">
              <mxPoint x="410" y="450" />
            </Array>
          </mxGeometry>
        </mxCell>
        <mxCell id="muk6Y00Rmkquv57omvr4-55" style="edgeStyle=orthogonalEdgeStyle;rounded=0;orthogonalLoop=1;jettySize=auto;html=1;entryX=0.367;entryY=0.013;entryDx=0;entryDy=0;entryPerimeter=0;" parent="1" source="muk6Y00Rmkquv57omvr4-52" target="muk6Y00Rmkquv57omvr4-47" edge="1">
          <mxGeometry relative="1" as="geometry" />
        </mxCell>
        <mxCell id="muk6Y00Rmkquv57omvr4-56" style="edgeStyle=orthogonalEdgeStyle;rounded=0;orthogonalLoop=1;jettySize=auto;html=1;entryX=0.283;entryY=-0.025;entryDx=0;entryDy=0;entryPerimeter=0;" parent="1" source="muk6Y00Rmkquv57omvr4-52" target="muk6Y00Rmkquv57omvr4-21" edge="1">
          <mxGeometry relative="1" as="geometry">
            <Array as="points">
              <mxPoint x="214" y="450" />
            </Array>
          </mxGeometry>
        </mxCell>
        <mxCell id="ORMxDvPU9FAxTXZJZU_r-1" style="edgeStyle=orthogonalEdgeStyle;rounded=0;orthogonalLoop=1;jettySize=auto;html=1;exitX=0;exitY=0.5;exitDx=0;exitDy=0;entryX=0.167;entryY=0.5;entryDx=0;entryDy=0;entryPerimeter=0;" edge="1" parent="1" source="muk6Y00Rmkquv57omvr4-14" target="muk6Y00Rmkquv57omvr4-14">
          <mxGeometry relative="1" as="geometry" />
        </mxCell>
        <mxCell id="ORMxDvPU9FAxTXZJZU_r-8" style="edgeStyle=orthogonalEdgeStyle;rounded=0;orthogonalLoop=1;jettySize=auto;html=1;" edge="1" parent="1" source="ORMxDvPU9FAxTXZJZU_r-3" target="-o4CJr4k2LS8cgy7fZOQ-1">
          <mxGeometry relative="1" as="geometry" />
        </mxCell>
        <mxCell id="ORMxDvPU9FAxTXZJZU_r-3" value="etop-dev" style="shape=cylinder3;whiteSpace=wrap;html=1;boundedLbl=1;backgroundOutline=1;size=15;" vertex="1" parent="1">
          <mxGeometry x="440" y="1140" width="60" height="80" as="geometry" />
        </mxCell>
        <mxCell id="ORMxDvPU9FAxTXZJZU_r-5" value="etop-prod" style="shape=cylinder3;whiteSpace=wrap;html=1;boundedLbl=1;backgroundOutline=1;size=15;" vertex="1" parent="1">
          <mxGeometry x="355" y="1265" width="60" height="80" as="geometry" />
        </mxCell>
        <mxCell id="ORMxDvPU9FAxTXZJZU_r-7" value="talrise-dev" style="shape=cylinder3;whiteSpace=wrap;html=1;boundedLbl=1;backgroundOutline=1;size=15;" vertex="1" parent="1">
          <mxGeometry x="575" y="1215" width="60" height="80" as="geometry" />
        </mxCell>
        <mxCell id="ORMxDvPU9FAxTXZJZU_r-9" value="&lt;div style=&quot;font-size: 14px;&quot;&gt;namespace:&amp;nbsp;&amp;nbsp;&amp;nbsp;&amp;nbsp; jenkins&lt;br&gt;&lt;/div&gt;" style="rhombus;whiteSpace=wrap;html=1;fontStyle=1;fontSize=14;" vertex="1" parent="1">
          <mxGeometry x="875" y="630" width="130" height="110" as="geometry" />
        </mxCell>
        <mxCell id="ORMxDvPU9FAxTXZJZU_r-26" style="edgeStyle=orthogonalEdgeStyle;rounded=0;orthogonalLoop=1;jettySize=auto;html=1;" edge="1" parent="1" source="ORMxDvPU9FAxTXZJZU_r-10" target="ORMxDvPU9FAxTXZJZU_r-9">
          <mxGeometry relative="1" as="geometry" />
        </mxCell>
        <mxCell id="ORMxDvPU9FAxTXZJZU_r-10" value="Helm install jenkins ......" style="rounded=1;whiteSpace=wrap;html=1;" vertex="1" parent="1">
          <mxGeometry x="870" y="780" width="150" height="240" as="geometry" />
        </mxCell>
        <mxCell id="ORMxDvPU9FAxTXZJZU_r-19" style="edgeStyle=orthogonalEdgeStyle;rounded=0;orthogonalLoop=1;jettySize=auto;html=1;" edge="1" parent="1" source="ORMxDvPU9FAxTXZJZU_r-11">
          <mxGeometry relative="1" as="geometry">
            <mxPoint x="940" y="20" as="targetPoint" />
          </mxGeometry>
        </mxCell>
        <mxCell id="ORMxDvPU9FAxTXZJZU_r-11" value="&lt;div&gt;ingress-controller&lt;/div&gt;&lt;div&gt;&amp;nbsp;&amp;nbsp; : jenkins&lt;br&gt;&lt;/div&gt;-ingressc" style="ellipse;whiteSpace=wrap;html=1;fontStyle=1" vertex="1" parent="1">
          <mxGeometry x="850" y="60" width="180" height="140" as="geometry" />
        </mxCell>
        <mxCell id="ORMxDvPU9FAxTXZJZU_r-21" style="edgeStyle=orthogonalEdgeStyle;rounded=0;orthogonalLoop=1;jettySize=auto;html=1;entryX=0.5;entryY=1;entryDx=0;entryDy=0;" edge="1" parent="1" source="ORMxDvPU9FAxTXZJZU_r-12" target="ORMxDvPU9FAxTXZJZU_r-11">
          <mxGeometry relative="1" as="geometry" />
        </mxCell>
        <mxCell id="ORMxDvPU9FAxTXZJZU_r-12" value="&lt;div&gt;namespace:&amp;nbsp;&amp;nbsp;&amp;nbsp;&amp;nbsp;&amp;nbsp;&amp;nbsp;&amp;nbsp;&amp;nbsp;&amp;nbsp;&amp;nbsp;&amp;nbsp;&amp;nbsp;&amp;nbsp;&amp;nbsp;&amp;nbsp;&amp;nbsp;&amp;nbsp;&amp;nbsp;&amp;nbsp; jenkins&lt;br&gt;&lt;/div&gt;" style="rhombus;whiteSpace=wrap;html=1;fontStyle=1" vertex="1" parent="1">
          <mxGeometry x="855" y="290" width="170" height="140" as="geometry" />
        </mxCell>
        <mxCell id="ORMxDvPU9FAxTXZJZU_r-22" style="edgeStyle=orthogonalEdgeStyle;rounded=0;orthogonalLoop=1;jettySize=auto;html=1;" edge="1" parent="1" source="ORMxDvPU9FAxTXZJZU_r-13" target="ORMxDvPU9FAxTXZJZU_r-12">
          <mxGeometry relative="1" as="geometry" />
        </mxCell>
        <mxCell id="ORMxDvPU9FAxTXZJZU_r-13" value="ingress" style="shape=cube;whiteSpace=wrap;html=1;boundedLbl=1;backgroundOutline=1;darkOpacity=0.05;darkOpacity2=0.1;fontStyle=1" vertex="1" parent="1">
          <mxGeometry x="880" y="490" width="120" height="80" as="geometry" />
        </mxCell>
        <mxCell id="ORMxDvPU9FAxTXZJZU_r-14" value="&lt;div style=&quot;font-size: 14px;&quot;&gt;namespace:&amp;nbsp;&amp;nbsp; talrise-dev&lt;/div&gt;" style="rhombus;whiteSpace=wrap;html=1;fontStyle=1;fontSize=14;" vertex="1" parent="1">
          <mxGeometry x="1095" y="630" width="130" height="110" as="geometry" />
        </mxCell>
        <mxCell id="ORMxDvPU9FAxTXZJZU_r-27" style="edgeStyle=orthogonalEdgeStyle;rounded=0;orthogonalLoop=1;jettySize=auto;html=1;" edge="1" parent="1" source="ORMxDvPU9FAxTXZJZU_r-15" target="ORMxDvPU9FAxTXZJZU_r-14">
          <mxGeometry relative="1" as="geometry" />
        </mxCell>
        <mxCell id="ORMxDvPU9FAxTXZJZU_r-15" value="Helm install elk&amp;nbsp; ...." style="rounded=1;whiteSpace=wrap;html=1;" vertex="1" parent="1">
          <mxGeometry x="1090" y="780" width="150" height="240" as="geometry" />
        </mxCell>
        <mxCell id="ORMxDvPU9FAxTXZJZU_r-20" style="edgeStyle=orthogonalEdgeStyle;rounded=0;orthogonalLoop=1;jettySize=auto;html=1;" edge="1" parent="1" source="ORMxDvPU9FAxTXZJZU_r-16">
          <mxGeometry relative="1" as="geometry">
            <mxPoint x="1160" y="20" as="targetPoint" />
          </mxGeometry>
        </mxCell>
        <mxCell id="ORMxDvPU9FAxTXZJZU_r-16" value="&lt;div&gt;ingress-controller&lt;/div&gt;&lt;div&gt;&amp;nbsp;&amp;nbsp; :elk&lt;br&gt;&lt;/div&gt;" style="ellipse;whiteSpace=wrap;html=1;fontStyle=1" vertex="1" parent="1">
          <mxGeometry x="1070" y="60" width="180" height="140" as="geometry" />
        </mxCell>
        <mxCell id="ORMxDvPU9FAxTXZJZU_r-17" value="&lt;div&gt;namespace:&amp;nbsp;&amp;nbsp;&amp;nbsp;&amp;nbsp;&amp;nbsp; &amp;nbsp; &amp;nbsp; &amp;nbsp; &amp;nbsp; &amp;nbsp; &amp;nbsp; &amp;nbsp; &amp;nbsp;&amp;nbsp;&amp;nbsp;&amp;nbsp;&amp;nbsp;&amp;nbsp;&amp;nbsp;&amp;nbsp;&amp;nbsp; elk&lt;br&gt;&lt;/div&gt;&lt;div&gt;&lt;br&gt;&lt;/div&gt;&lt;div&gt;&lt;br&gt;&lt;/div&gt;" style="rhombus;whiteSpace=wrap;html=1;fontStyle=1" vertex="1" parent="1">
          <mxGeometry x="1070" y="280" width="170" height="140" as="geometry" />
        </mxCell>
        <mxCell id="ORMxDvPU9FAxTXZJZU_r-24" style="edgeStyle=orthogonalEdgeStyle;rounded=0;orthogonalLoop=1;jettySize=auto;html=1;entryX=0.5;entryY=1;entryDx=0;entryDy=0;" edge="1" parent="1" source="ORMxDvPU9FAxTXZJZU_r-18" target="ORMxDvPU9FAxTXZJZU_r-17">
          <mxGeometry relative="1" as="geometry" />
        </mxCell>
        <mxCell id="ORMxDvPU9FAxTXZJZU_r-18" value="ingress" style="shape=cube;whiteSpace=wrap;html=1;boundedLbl=1;backgroundOutline=1;darkOpacity=0.05;darkOpacity2=0.1;fontStyle=1" vertex="1" parent="1">
          <mxGeometry x="1100" y="490" width="120" height="80" as="geometry" />
        </mxCell>
        <mxCell id="ORMxDvPU9FAxTXZJZU_r-23" style="edgeStyle=orthogonalEdgeStyle;rounded=0;orthogonalLoop=1;jettySize=auto;html=1;entryX=0.472;entryY=0.786;entryDx=0;entryDy=0;entryPerimeter=0;" edge="1" parent="1" source="ORMxDvPU9FAxTXZJZU_r-17" target="ORMxDvPU9FAxTXZJZU_r-16">
          <mxGeometry relative="1" as="geometry" />
        </mxCell>
        <mxCell id="ORMxDvPU9FAxTXZJZU_r-25" style="edgeStyle=orthogonalEdgeStyle;rounded=0;orthogonalLoop=1;jettySize=auto;html=1;entryX=0.5;entryY=1;entryDx=0;entryDy=0;entryPerimeter=0;" edge="1" parent="1" source="ORMxDvPU9FAxTXZJZU_r-9" target="ORMxDvPU9FAxTXZJZU_r-13">
          <mxGeometry relative="1" as="geometry" />
        </mxCell>
        <mxCell id="ORMxDvPU9FAxTXZJZU_r-28" style="edgeStyle=orthogonalEdgeStyle;rounded=0;orthogonalLoop=1;jettySize=auto;html=1;entryX=0.5;entryY=0.625;entryDx=0;entryDy=0;entryPerimeter=0;" edge="1" parent="1" source="ORMxDvPU9FAxTXZJZU_r-14" target="ORMxDvPU9FAxTXZJZU_r-18">
          <mxGeometry relative="1" as="geometry" />
        </mxCell>
      </root>
    </mxGraphModel>
  </diagram>
</mxfile>
